[IMG]http://www.shotpix.com/images/80372163254639890444.jpg[/IMG]

General
Complete name                            : Maroon 5 - One More Night [Music Video] 1080p [Sbyky].mp4
Format                                   : MPEG-4
Format profile                           : Base Media / Version 2
Codec ID                                 : mp42
File size                                : 163 MiB
Duration                                 : 3mn 42s
Overall bit rate mode                    : Variable
Overall bit rate                         : 6 126 Kbps
Encoded date                             : UTC 2012-06-14 00:31:43
Tagged date                              : UTC 2012-06-14 00:31:43
gsst                                     : 0
gstd                                     : 223096
gssd                                     : BADC21F85HH1359217142878707

Video
ID                                       : 1
Format                                   : AVC
Format/Info                              : Advanced Video Codec
Format profile                           : High@L4.0
Format settings, CABAC                   : Yes
Format settings, ReFrames                : 1 frame
Codec ID                                 : avc1
Codec ID/Info                            : Advanced Video Coding
Duration                                 : 3mn 42s
Bit rate                                 : 5 974 Kbps
Maximum bit rate                         : 16.7 Mbps
Width                                    : 1 920 pixels
Height                                   : 1 080 pixels
Display aspect ratio                     : 16:9
Frame rate mode                          : Constant
Frame rate                               : 23.976 fps
Color space                              : YUV
Chroma subsampling                       : 4:2:0
Bit depth                                : 8 bits
Scan type                                : Progressive
Bits/(Pixel*Frame)                       : 0.120
Stream size                              : 159 MiB (98%)
Tagged date                              : UTC 2012-06-14 00:31:45

Audio
ID                                       : 2
Format                                   : AAC
Format/Info                              : Advanced Audio Codec
Format profile                           : LC
Codec ID                                 : 40
Duration                                 : 3mn 42s
Bit rate mode                            : Variable
Bit rate                                 : 149 Kbps
Maximum bit rate                         : 192 Kbps
Channel(s)                               : 2 channels
Channel positions                        : Front: L R
Sampling rate                            : 44.1 KHz
Compression mode                         : Lossy
Stream size                              : 3.97 MiB (2%)
Title                                    : IsoMedia File Produced by Google, 5-11-2011
Encoded date                             : UTC 2012-06-14 00:31:44
Tagged date                              : UTC 2012-06-14 00:31:45

Shared By Sbyky
[IMG]http://www.shotpix.com/images/93673952718153918459.gif[/IMG]
[IMG]http://www.shotpix.com/images/30389343628541615007.gif[/IMG]